<svg xmlns="http://www.w3.org/2000/svg" viewBox="0 0 1024 1024"><g fill="#FFFFFF"><g transform="translate(150,639) scale(0.17100,-0.17100)"><path transform="translate(0,0)" d="M325 0Q266 0 238.5 33.0Q211 66 211 118V448H39V516H167Q193 516 203.5 526.5Q214 537 214 563V698H291V516H526V448H291V68H526V0Z"/><path transform="translate(600,0)" d="M332 630Q297 630 283.0 644.5Q269 659 269 681V697Q269 719 283.0 733.5Q297 748 332 748Q367 748 381.0 733.5Q395 719 395 697V681Q395 659 381.0 644.5Q367 630 332 630ZM106 68H292V448H106V516H372V68H546V0H106Z"/><path transform="translate(1200,0)" d="M98 0V516H178V432H182Q190 451 202.0 468.5Q214 486 231.5 499.0Q249 512 273.0 520.0Q297 528 329 528Q410 528 459.0 476.5Q508 425 508 331V0H428V317Q428 388 397.0 422.5Q366 457 306 457Q282 457 259.0 451.0Q236 445 218.0 433.0Q200 421 189.0 402.0Q178 383 178 358V0Z"/><path transform="translate(1800,0)" d="M467 516H547L291 -113Q282 -135 271.0 -151.5Q260 -168 245.0 -178.5Q230 -189 209.0 -194.5Q188 -200 159 -200H83V-132H203L261 10L53 516H135L222 300L299 104H303L380 300Z"/></g><g transform="translate(150,806) scale(0.17100,-0.17100)"><path transform="translate(0,0)" d="M444 93H439Q430 73 418.0 54.0Q406 35 387.5 20.5Q369 6 343.0 -3.0Q317 -12 281 -12Q167 -12 111.5 80.0Q56 172 56 344Q56 524 117.0 617.0Q178 710 305 710Q354 710 390.0 697.0Q426 684 451.5 662.0Q477 640 494.0 612.5Q511 585 522 557L450 524Q441 547 429.5 567.5Q418 588 401.5 603.5Q385 619 362.0 628.0Q339 637 308 637Q224 637 184.5 574.0Q145 511 145 406V298Q145 245 153.0 201.5Q161 158 179.5 126.0Q198 94 227.5 76.5Q257 59 300 59Q368 59 406.0 100.0Q444 141 444 206V278H297V345H522V0H444Z"/><path transform="translate(600,0)" d="M77 68H228V448H77V516H308V386H313Q329 447 373.5 481.5Q418 516 487 516H559V436H462Q393 436 350.5 396.0Q308 356 308 291V68H508V0H77Z"/><path transform="translate(1200,0)" d="M309 -12Q253 -12 208.5 7.0Q164 26 132.5 61.5Q101 97 84.0 146.5Q67 196 67 257Q67 319 84.5 369.0Q102 419 133.0 454.5Q164 490 207.5 509.0Q251 528 304 528Q356 528 398.5 509.0Q441 490 471.0 456.5Q501 423 517.0 377.0Q533 331 533 276V238H151V214Q151 180 162.0 151.0Q173 122 193.5 101.0Q214 80 243.5 68.5Q273 57 309 57Q361 57 399.0 81.0Q437 105 457 147L516 107Q493 55 439.5 21.5Q386 -12 309 -12ZM304 462Q271 462 243.0 450.0Q215 438 194.5 417.0Q174 396 162.5 367.5Q151 339 151 305V298H447V309Q447 343 436.5 371.0Q426 399 407.5 419.5Q389 440 362.5 451.0Q336 462 304 462Z"/><path transform="translate(1800,0)" d="M309 -12Q253 -12 208.5 7.0Q164 26 132.5 61.5Q101 97 84.0 146.5Q67 196 67 257Q67 319 84.5 369.0Q102 419 133.0 454.5Q164 490 207.5 509.0Q251 528 304 528Q356 528 398.5 509.0Q441 490 471.0 456.5Q501 423 517.0 377.0Q533 331 533 276V238H151V214Q151 180 162.0 151.0Q173 122 193.5 101.0Q214 80 243.5 68.5Q273 57 309 57Q361 57 399.0 81.0Q437 105 457 147L516 107Q493 55 439.5 21.5Q386 -12 309 -12ZM304 462Q271 462 243.0 450.0Q215 438 194.5 417.0Q174 396 162.5 367.5Q151 339 151 305V298H447V309Q447 343 436.5 371.0Q426 399 407.5 419.5Q389 440 362.5 451.0Q336 462 304 462Z"/><path transform="translate(2400,0)" d="M98 0V516H178V432H182Q190 451 202.0 468.5Q214 486 231.5 499.0Q249 512 273.0 520.0Q297 528 329 528Q410 528 459.0 476.5Q508 425 508 331V0H428V317Q428 388 397.0 422.5Q366 457 306 457Q282 457 259.0 451.0Q236 445 218.0 433.0Q200 421 189.0 402.0Q178 383 178 358V0Z"/></g></g></svg>